<?xml version="1.0" encoding="utf-8"?>
<!-- Generator: Adobe Illustrator 18.1.1, SVG Export Plug-In . SVG Version: 6.00 Build 0)  -->
<svg version="1.1" id="Ebene_1" xmlns="http://www.w3.org/2000/svg" xmlns:xlink="http://www.w3.org/1999/xlink" x="0px" y="0px"
	 viewBox="0 0 482 188.3" style="enable-background:new 0 0 482 188.3;" xml:space="preserve">
<style type="text/css">
	.st0{fill:#FFFFFF;}
	.st1{fill:#89B63E;}
	.st2{fill:#1793D7;}
	.st3{fill:#C7207C;}
</style>
<g>
</g>
<g>
	<path class="st0" d="M112.5,160.3h2.8v1.4c0,0,2.9-1.7,5.7-1.7c4.8,0,6.9,2.9,6.9,9.7c0,7.4-2.4,10.1-8.3,10.1
		c-1.8,0-3.7-0.3-4.3-0.4v8.5h-2.8V160.3z M115.4,164v12.8c0.5,0.1,2.5,0.4,4.1,0.4c4.2,0,5.5-2.2,5.5-7.6c0-5.2-1.6-7.1-4.4-7.1
		C118,162.5,115.4,164,115.4,164z"/>
	<path class="st0" d="M132.8,160.3h2.8v2.6c0,0,3.3-2.3,7-3v2.9c-3.6,0.7-6.9,2.6-6.9,2.6v13.9h-2.8V160.3z"/>
	<path class="st0" d="M146.2,152.7h2.8v3.3h-2.8V152.7z M146.2,160.3h2.8v19h-2.8V160.3z"/>
	<path class="st0" d="M154.8,179.3v-19h2.8v1.3c0,0,3.1-1.7,5.9-1.7c5.2,0,6.4,2.6,6.4,9.3v10h-2.8v-10c0-5-0.6-6.9-4.1-6.9
		c-2.7,0-5.4,1.4-5.4,1.4v15.4H154.8z"/>
	<path class="st0" d="M179.2,162.8v9.1c0,4.1,0.3,5.3,2.7,5.3c1.1,0,3.4-0.2,3.4-0.2l0.2,2.4c0,0-2.5,0.4-3.9,0.4
		c-3.9,0-5.2-1.5-5.2-7v-10h-2.7v-2.5h2.7v-5.8h2.8v5.8h6v2.5H179.2z"/>
	<path class="st0" d="M197.8,152h2.8v35.7h-2.8V152z"/>
	<path class="st0" d="M229.1,179.3h-2.8V178c0,0-2.9,1.7-5.8,1.7c-3.7,0-6.8-1.5-6.8-9.7c0-6.7,2.2-10,7.9-10c1.6,0,4.1,0.4,4.7,0.5
		V152h2.8V179.3z M226.3,175.8v-12.9c-0.6-0.1-3-0.5-4.5-0.5c-4,0-5.2,2.6-5.2,7.6c0,6.2,2,7.2,4.3,7.2
		C223.6,177.2,226.3,175.8,226.3,175.8z"/>
	<path class="st0" d="M234.9,152.7h2.8v3.3h-2.8V152.7z M234.9,160.3h2.8v19h-2.8V160.3z"/>
	<path class="st0" d="M242.7,182.5c0-2.2,1-3.2,3-4.7c-0.7-0.5-1.1-1.4-1.1-2.6c0-0.7,1.3-3,1.3-3c-1.6-0.7-3-2.2-3-5.7
		c0-4.7,2.9-6.5,7.1-6.5c1.9,0,4,0.5,4,0.5l5.6-0.2v2.4l-3.6-0.1c0.7,0.7,1.3,1.8,1.3,3.8c0,4.9-2.5,6.4-7.3,6.4
		c-0.4,0-1.4-0.1-1.9-0.2c0,0-0.7,1.7-0.7,2.2c0,1.5,0.3,1.7,4.6,1.7c5.4,0,7.3,1.1,7.3,5.6c0,4.3-3.1,6-8.4,6
		C244.8,188.3,242.7,186.9,242.7,182.5z M247.6,178.9c-1.6,1.2-2.1,1.9-2.1,3.3c0,2.6,1.1,3.6,5.4,3.6c3.8,0,5.5-1,5.5-3.5
		c0-2.9-1.2-3.2-4.7-3.2C250.4,179.1,247.6,178.9,247.6,178.9z M254.4,166.4c0-3-1.2-4.2-4.4-4.2c-3,0-4.3,1.2-4.3,4.2
		c0,3,1.3,4.1,4.3,4.1C253.2,170.6,254.4,169.4,254.4,166.4z"/>
	<path class="st0" d="M263.3,152.7h2.8v3.3h-2.8V152.7z M263.3,160.3h2.8v19h-2.8V160.3z"/>
	<path class="st0" d="M275.7,162.8v9.1c0,4.1,0.3,5.3,2.7,5.3c1.1,0,3.4-0.2,3.4-0.2l0.2,2.4c0,0-2.5,0.4-3.9,0.4
		c-3.9,0-5.2-1.5-5.2-7v-10h-2.7v-2.5h2.7v-5.8h2.8v5.8h6v2.5H275.7z"/>
	<path class="st0" d="M298.9,175.8c0.1,1.1,1,1.5,2.2,1.7l-0.1,2.2c-2,0-3.4-0.4-4.5-1.5c0,0-3.4,1.5-6.8,1.5c-3.5,0-5.4-2-5.4-5.8
		c0-3.6,1.9-5.2,5.8-5.6l6-0.6v-1.6c0-2.7-1.1-3.6-3.4-3.6c-2.7,0-7.2,0.5-7.2,0.5l-0.1-2.2c0,0,4.2-0.8,7.4-0.8
		c4.3,0,6.1,2,6.1,6.1V175.8z M290.4,170.4c-2.3,0.2-3.2,1.3-3.2,3.4c0,2.2,1,3.5,2.9,3.5c2.8,0,6-1.2,6-1.2v-6.3L290.4,170.4z"/>
	<path class="st0" d="M305,152h2.8v27.3H305V152z"/>
	<path class="st0" d="M322.7,152h2.8v35.7h-2.8V152z"/>
	<path class="st0" d="M352.7,163.1c0,0-4.2-0.6-6.6-0.6c-2.4,0-4.1,0.6-4.1,2.9c0,1.8,0.9,2.3,4.9,3c4.7,0.8,6.5,1.7,6.5,5.4
		c0,4.4-2.8,5.9-7.4,5.9c-2.4,0-6.7-0.7-6.7-0.7l0.2-2.5c0,0,4.3,0.6,6.3,0.6c3.1,0,4.8-0.7,4.8-3.3c0-2-1-2.5-5.1-3.1
		c-4.3-0.7-6.3-1.5-6.3-5.3c0-4.2,3.4-5.5,6.8-5.5c2.8,0,6.9,0.7,6.9,0.7L352.7,163.1z"/>
	<path class="st0" d="M372.1,176.9l0.1,2.2c0,0-4.3,0.6-7.4,0.6c-5.7,0-7.5-3.3-7.5-9.8c0-7.2,3.1-10,7.9-10c5.1,0,7.6,2.7,7.6,8.9
		l-0.2,2.2h-12.5c0,4.1,1.3,6.2,5,6.2C367.9,177.2,372.1,176.9,372.1,176.9z M369.9,168.7c0-4.7-1.4-6.4-4.8-6.4
		c-3.2,0-5.1,1.8-5.1,6.4H369.9z"/>
	<path class="st0" d="M377.5,160.3h2.8v2.6c0,0,3.3-2.3,7-3v2.9c-3.6,0.7-6.9,2.6-6.9,2.6v13.9h-2.8V160.3z"/>
	<path class="st0" d="M392.2,160.3l4.4,16.5h1.4l4.6-16.5h2.9l-5.4,19h-5.7l-5.4-19H392.2z"/>
	<path class="st0" d="M409.5,152.7h2.8v3.3h-2.8V152.7z M409.5,160.3h2.8v19h-2.8V160.3z"/>
	<path class="st0" d="M430.3,160.5l-0.1,2.3c0,0-3-0.3-4.5-0.3c-4.4,0-5.5,1.9-5.5,7c0,5.6,0.9,7.7,5.6,7.7c1.4,0,4.5-0.3,4.5-0.3
		l0.1,2.4c0,0-3.5,0.5-5.3,0.5c-6,0-7.8-2.8-7.8-10.2c0-6.9,2.2-9.5,7.9-9.5C426.9,159.9,430.3,160.5,430.3,160.5z"/>
	<path class="st0" d="M448.7,176.9l0.1,2.2c0,0-4.3,0.6-7.4,0.6c-5.7,0-7.5-3.3-7.5-9.8c0-7.2,3.1-10,7.9-10c5.1,0,7.6,2.7,7.6,8.9
		l-0.2,2.2h-12.5c0,4.1,1.3,6.2,5,6.2C444.5,177.2,448.7,176.9,448.7,176.9z M446.5,168.7c0-4.7-1.4-6.4-4.8-6.4
		c-3.2,0-5.1,1.8-5.1,6.4H446.5z"/>
</g>
<g>
	<path class="st0" d="M61.3,126c-6.8,1.4-17.2,2.9-26.4,2.9C6.3,128.9,0,111.5,0,80c0-32.3,6.2-49.4,34.9-49.4
		c9.8,0,20.3,1.8,26.4,3l-0.4,9c-6.2-1.1-17.4-2.5-24.8-2.5c-21.3,0-25,12.7-25,39.9c0,26.6,3.4,39.3,25.3,39.3
		c7.7,0,17.9-1.2,24.6-2.5L61.3,126z"/>
	<path class="st0" d="M72.6,80.2c0-31.5,8.1-49.5,37.7-49.5c29.5,0,37.8,17.8,37.8,49.5c0,32.8-8.1,48.7-37.8,48.7
		C80.6,128.9,72.6,112.2,72.6,80.2z M137,80.2c0-25.8-5-40.2-26.8-40.2c-21.9,0-26.8,14.2-26.8,40.2c0,26.1,4.7,39.3,26.8,39.3
		C132.5,119.5,137,107.1,137,80.2z"/>
	<path class="st0" d="M167.5,127.5V32h10.6v86h42v9.5H167.5z"/>
	<path class="st0" d="M224.9,80.2c0-31.5,8.1-49.5,37.7-49.5c29.5,0,37.8,17.8,37.8,49.5c0,32.8-8.1,48.7-37.8,48.7
		C232.9,128.9,224.9,112.2,224.9,80.2z M289.4,80.2c0-25.8-5-40.2-26.8-40.2c-21.9,0-26.8,14.2-26.8,40.2c0,26.1,4.7,39.3,26.8,39.3
		C284.8,119.5,289.4,107.1,289.4,80.2z"/>
	<path class="st0" d="M328.4,90.9v36.6h-10.6V32h35.3c20,0,30.5,8.8,30.5,29c0,14.1-5.5,23.9-17.5,27.7l18.4,38.8h-11.7l-17.2-36.6
		H328.4z M353.1,41.4h-24.7v40.2h24.8c14.4,0,19.5-8.6,19.5-20.6C372.7,47.9,366.5,41.4,353.1,41.4z"/>
</g>
<rect x="431.6" y="0" class="st1" width="18.1" height="32"/>
<polygon class="st2" points="449.7,32 449.7,82.2 431.6,82.2 431.6,50.3 399.5,50.3 399.5,32 "/>
<rect x="449.7" y="32" class="st3" width="32.2" height="18.3"/>
</svg>
