<?xml version="1.0" encoding="UTF-8"?><svg id="Ebene_2" xmlns="http://www.w3.org/2000/svg" viewBox="0 0 378.84 378.84"><defs><style>.cls-1{fill:#333;stroke-width:0px;}</style></defs><g id="_ĎŽÓť_1"><path class="cls-1" d="M269.35,378.84H109.5c-60.38,0-109.5-49.12-109.5-109.5V109.5C0,49.12,49.12,0,109.5,0h159.85c60.38,0,109.5,49.12,109.5,109.5v159.85c0,60.38-49.12,109.5-109.5,109.5ZM109.5,38.11c-39.36,0-71.38,32.02-71.38,71.38v159.85c0,39.36,32.02,71.38,71.38,71.38h159.85c39.36,0,71.38-32.02,71.38-71.38V109.5c0-39.36-32.02-71.38-71.38-71.38H109.5Z"/><path class="cls-1" d="M189.42,285.3c-52.87,0-95.88-43.01-95.88-95.88s43.01-95.88,95.88-95.88,95.88,43.01,95.88,95.88-43.01,95.88-95.88,95.88ZM189.42,125.39c-35.31,0-64.03,28.73-64.03,64.03s28.73,64.03,64.03,64.03,64.03-28.73,64.03-64.03-28.73-64.03-64.03-64.03Z"/><circle class="cls-1" cx="287.18" cy="88.78" r="22.35"/></g></svg>