<?xml version="1.0" encoding="UTF-8"?><svg id="Ebene_2" xmlns="http://www.w3.org/2000/svg" viewBox="0 0 366.62 253.24"><defs><style>.cls-1{fill:#333;}.cls-1,.cls-2{stroke-width:0px;}.cls-2{fill:#fff;}</style></defs><g id="_ĎŽÓť_1"><path class="cls-1" d="M366.41,126.62s3.32-79.66-16.25-104.58c-12.7-16.18-35.67-19.66-62.37-20.52C240.49.02,187.51,0,183.31,0c-4.2,0-57.18.02-104.48,1.53-26.71.85-49.67,4.34-62.37,20.52C-3.1,46.96.21,126.62.21,126.62H.21s-3.32,79.66,16.25,104.58c12.7,16.18,35.67,19.66,62.37,20.52,47.3,1.51,100.28,1.53,104.48,1.53,4.2,0,57.18-.02,104.48-1.53,26.71-.85,49.67-4.34,62.37-20.52,19.56-24.92,16.25-104.58,16.25-104.58h0Z"/><polygon class="cls-2" points="147.13 73.05 147.13 182.13 242.41 127.59 147.13 73.05"/></g></svg>