<?xml version="1.0" encoding="utf-8"?><!DOCTYPE svg PUBLIC "-//W3C//DTD SVG 1.1//EN" "http://www.w3.org/Graphics/SVG/1.1/DTD/svg11.dtd"><svg version="1.1" xmlns="http://www.w3.org/2000/svg" xmlns:xlink="http://www.w3.org/1999/xlink" x="0" y="0" width="348.356784" height="130.000000"><g transform="scale(3.000000 3.000000)"><g
   id="White_green_border">
	<path
   fill="rgb(35,105,67)"
   stroke="rgb(35,105,67)"
   stroke-width="0.42"
   d="M37.177,40.42c0,1.362-1.146,2.466-2.561,2.466H2.912   c-1.415,0-2.562-1.104-2.562-2.466V2.816c0-1.362,1.147-2.466,2.562-2.466h31.704c1.415,0,2.561,1.104,2.561,2.466   C37.177,2.816,37.177,40.42,37.177,40.42z"
   id="path121096" />
</g>


<g
   id="Tree_Green">
	<path
   fill="rgb(255,255,255)"
   d="M26.844,14.742"
   id="path121157" />
	<path
   fill="rgb(255,255,255)"
   d="M24.062,8.639"
   id="path121159" />
	<g
   id="g121161">
		<g
   id="g121163">
			<g
   id="g121165">
				<g
   id="g121167">
					<path
   fill="rgb(255,255,255)"
   d="M19.017,4.732c-5.744,0-7.774,8.934-9.666,16.118c-0.68-0.691-2.786-2.787-2.787-2.786       c-0.422-0.418-0.908-0.283-1.207,0.009c-0.297,0.3-0.342,0.854,0,1.189c0.018,0.017,2.851,2.841,3.83,3.818       c0.271,0.266,0.66,0.419,1.049,0.19c0.406-0.248,0.462-0.688,0.471-0.688C14.062,7.542,17.063,6.42,19.011,6.42       c1.637,0,3.522,1.211,3.522,3.632c2.446,0,3.976,3.208,2.009,5.184c1.63,0.788,2.356,1.759,2.356,2.983       c0,1.23-1.029,2.483-2.528,2.479c-1.488,0-2.244-0.957-3.405-0.958c-0.525,0-0.845,0.422-0.845,0.841v3.039h-2.189v-3.027       c-0.005-0.474-0.354-0.846-0.789-0.846c-0.007,0-0.188,0.003-0.182,0.01l-2.933,0.365c-0.356,0.048-0.682,0.435-0.682,0.833       c0,0.466,0.38,0.85,0.901,0.843c0.063,0,0.152,0,0.146-0.009c-0.007,0,1.854-0.236,1.854-0.236s0,2.986,0,2.996       c0,0.383,0.433,0.752,0.817,0.754h3.896c0.453,0,0.846-0.393,0.846-0.853v-2.736c0.815,0.499,1.948,0.692,2.532,0.692       c2.185,0,4.271-1.719,4.261-4.237c-0.01-2.289-1.755-3.427-1.755-3.427c1.027-2.731-0.632-5.368-2.782-6.104       C23.285,5.822,20.877,4.732,19.017,4.732z"
   id="path121169" />
				</g>
				<g
   id="g121171">
					<path
   fill="rgb(255,255,255)"
   d="M19.017,4.732c-5.744,0-7.774,8.934-9.666,16.118c-0.68-0.691-2.786-2.787-2.787-2.786       c-0.422-0.418-0.908-0.283-1.207,0.009c-0.297,0.3-0.342,0.854,0,1.189c0.018,0.017,2.851,2.841,3.83,3.818       c0.271,0.266,0.66,0.419,1.049,0.19c0.406-0.248,0.462-0.688,0.471-0.688C14.062,7.542,17.063,6.42,19.011,6.42       c1.637,0,3.522,1.211,3.522,3.632c2.446,0,3.976,3.208,2.009,5.184c1.63,0.788,2.356,1.759,2.356,2.983       c0,1.23-1.029,2.483-2.528,2.479c-1.488,0-2.244-0.957-3.405-0.958c-0.525,0-0.845,0.422-0.845,0.841v3.039h-2.189v-3.027       c-0.005-0.474-0.354-0.846-0.789-0.846c-0.007,0-0.188,0.003-0.182,0.01l-2.933,0.365c-0.356,0.048-0.682,0.435-0.682,0.833       c0,0.466,0.38,0.85,0.901,0.843c0.063,0,0.152,0,0.146-0.009c-0.007,0,1.854-0.236,1.854-0.236s0,2.986,0,2.996       c0,0.383,0.433,0.752,0.817,0.754h3.896c0.453,0,0.846-0.393,0.846-0.853v-2.736c0.815,0.499,1.948,0.692,2.532,0.692       c2.185,0,4.271-1.719,4.261-4.237c-0.01-2.289-1.755-3.427-1.755-3.427c1.027-2.731-0.632-5.368-2.782-6.104       C23.285,5.822,20.877,4.732,19.017,4.732z"
   id="path121173" />
				</g>
				<g
   id="g121175">
					<path
   fill="rgb(255,255,255)"
   d="M16.564,28.647c0,0.708,0.789,1.131,2.087,1.748c1.028,0.482,1.621,0.993,1.621,1.402       c0,0.662-0.712,0.898-1.381,0.898c-1.033,0-1.646-0.412-1.983-1.338l-0.029-0.08h-0.082c-0.185,0-0.331,0.009-0.41,0.109       c-0.07,0.092-0.052,0.216-0.02,0.337c-0.003-0.003,0.227,0.949,0.227,0.949c0.061,0.232,0.144,0.27,0.513,0.343       c0.162,0.027,0.997,0.172,1.705,0.172c1.977,0,2.861-0.803,2.861-1.6c0-0.579-0.576-1.136-1.814-1.75l-0.564-0.271       c-0.847-0.404-1.355-0.647-1.355-1.071c0-0.411,0.528-0.699,1.287-0.699c0.988,0,1.253,0.553,1.374,1.034l0.022,0.091h0.096       c0.222,0,0.359-0.018,0.439-0.106c0.049-0.049,0.066-0.118,0.057-0.202l-0.08-0.824c-0.021-0.261-0.222-0.3-0.5-0.355       c-0.332-0.06-0.73-0.132-1.327-0.132C17.589,27.304,16.564,27.807,16.564,28.647z"
   id="path121177" />
				</g>
				<g
   id="g121179">
					<path
   fill="rgb(255,255,255)"
   d="M22.255,30.312c0,1.428,1.241,2.877,3.614,2.877c1.197,0,1.871-0.271,2.374-0.541l0.138-0.071       l-0.223-0.244l0.013,0.012c-0.053-0.074-0.098-0.087-0.175-0.087l-0.114,0.038c-0.181,0.084-0.73,0.339-1.728,0.339       c-1.229,0-2.55-0.801-2.55-2.563c0-1.677,1.43-2.272,2.656-2.272c0.881,0,1.351,0.314,1.436,0.967l0.012,0.106h0.111       c0.103,0,0.382,0,0.382-0.21v-0.978c0-0.24-0.276-0.275-0.394-0.291l-0.115-0.015c-0.28-0.041-0.554-0.073-1.267-0.073       C24.01,27.304,22.255,28.569,22.255,30.312z"
   id="path121181" />
				</g>
				<g
   id="g121183">
					<path
   fill="rgb(255,255,255)"
   d="M13.306,27.375l-2.139,0.019l-1.428-0.024l-0.217-0.007c-0.125,0-0.216,0.092-0.216,0.225       c0,0.061,0,0.251,0.234,0.251c0.862,0,0.893,0.072,0.902,0.401l0.007,0.208l0.013,0.88v1.897c0,0.314-0.01,0.813-0.03,1.218       c-0.007,0.116-0.013,0.226-0.773,0.226c-0.213,0-0.342,0.042-0.342,0.254c0,0.062,0,0.225,0.205,0.225l0.049-0.003       c0.091-0.005,0.333-0.017,1.523-0.017c1.267,0,1.524,0.015,1.607,0.017l0.047,0.003c0.167,0,0.31-0.021,0.31-0.225       c0-0.235-0.193-0.254-0.515-0.254c-0.766,0-0.769-0.108-0.773-0.224c-0.018-0.371-0.034-0.873-0.034-1.22c0,0,0-0.508,0-0.684       c0.171,0,0.639,0,0.639,0c0.981,0,1.091,0.027,1.23,0.783c0.041,0.165,0.172,0.185,0.281,0.185c0.23,0,0.255-0.126,0.255-0.184       l-0.017-0.281c-0.017-0.162-0.033-0.363-0.033-0.64v-1.163c0-0.175-0.208-0.175-0.319-0.175c-0.188,0-0.231,0.119-0.35,0.668       c-0.052,0.209-0.457,0.33-1.11,0.33c0,0-0.408,0-0.576,0c0-0.214,0-1.708,0-1.708c0-0.464,0.082-0.468,0.186-0.474       c0.373-0.015,1.284-0.047,1.557-0.047c0.258,0,0.495,0.06,0.653,0.161c0.483,0.303,0.732,0.506,0.883,0.628       c0.146,0.12,0.229,0.19,0.35,0.19c0.07,0,0.276,0,0.276-0.178c0-0.046-0.016-0.086-0.085-0.232       c-0.079-0.174-0.214-0.463-0.38-0.906c-0.048-0.139-0.208-0.139-0.51-0.139L13.306,27.375z"
   id="path121185" />
				</g>
			</g>
		</g>
	</g>
	<g
   id="g121187">
		<path
   fill="rgb(255,255,255)"
   d="M9.886,38.355l-0.579-1.884h0.332l0.305,1.086l0.106,0.403c0.005-0.019,0.039-0.146,0.101-0.384l0.3-1.105    h0.326l0.279,1.092l0.091,0.36l0.109-0.361l0.33-1.091h0.31l-0.604,1.884H10.97l-0.293-1.128l-0.074-0.32l-0.388,1.449    L9.886,38.355L9.886,38.355z"
   id="path121189" />
		<path
   fill="rgb(255,255,255)"
   d="M12.573,38.355l-0.578-1.884h0.334l0.302,1.086l0.108,0.403c0.003-0.019,0.037-0.146,0.101-0.384    l0.298-1.105h0.325l0.279,1.092l0.092,0.36l0.108-0.361l0.334-1.091h0.31l-0.605,1.884H13.66l-0.295-1.128l-0.074-0.32    l-0.386,1.449L12.573,38.355L12.573,38.355z"
   id="path121191" />
		<path
   fill="rgb(255,255,255)"
   d="M15.263,38.355l-0.579-1.884h0.333l0.304,1.086l0.107,0.403c0.004-0.019,0.037-0.146,0.101-0.384    l0.298-1.105h0.326l0.28,1.092l0.091,0.36l0.109-0.361l0.33-1.091h0.312l-0.604,1.884h-0.323l-0.294-1.128l-0.074-0.32    l-0.389,1.449L15.263,38.355L15.263,38.355z"
   id="path121193" />
		<path
   fill="rgb(255,255,255)"
   d="M17.343,38.355v-0.363h0.361v0.363H17.343z"
   id="path121195" />
		<path
   fill="rgb(255,255,255)"
   d="M18.248,38.355v-1.637h-0.275v-0.249h0.275v-0.197c0-0.127,0.013-0.221,0.034-0.281    c0.03-0.082,0.085-0.149,0.162-0.2c0.077-0.053,0.187-0.077,0.325-0.077c0.09,0,0.188,0.012,0.296,0.031l-0.046,0.276    c-0.068-0.012-0.128-0.019-0.188-0.019c-0.097,0-0.166,0.021-0.206,0.063c-0.039,0.042-0.06,0.119-0.06,0.23v0.173h0.368v0.249    h-0.368v1.637H18.248z"
   id="path121197" />
		<path
   fill="rgb(255,255,255)"
   d="M19.096,37.786l0.32-0.041c0.016,0.126,0.064,0.222,0.146,0.291c0.081,0.065,0.192,0.099,0.337,0.099    s0.253-0.03,0.322-0.089c0.072-0.062,0.105-0.131,0.105-0.211c0-0.071-0.029-0.13-0.091-0.171    c-0.047-0.029-0.152-0.063-0.326-0.106c-0.229-0.061-0.389-0.111-0.479-0.154c-0.091-0.045-0.161-0.104-0.208-0.178    c-0.047-0.079-0.071-0.162-0.071-0.252c0-0.086,0.019-0.164,0.059-0.233c0.037-0.073,0.092-0.132,0.156-0.18    c0.051-0.034,0.115-0.065,0.201-0.094c0.085-0.024,0.177-0.036,0.274-0.036c0.146,0,0.273,0.021,0.387,0.064    c0.109,0.043,0.191,0.102,0.246,0.172c0.051,0.073,0.088,0.172,0.107,0.293l-0.311,0.042c-0.015-0.098-0.057-0.174-0.122-0.229    c-0.066-0.055-0.162-0.083-0.283-0.083c-0.145,0-0.246,0.024-0.31,0.073c-0.064,0.048-0.093,0.104-0.093,0.17    c0,0.041,0.012,0.079,0.037,0.11c0.027,0.034,0.067,0.062,0.124,0.085c0.03,0.013,0.121,0.041,0.275,0.081    c0.222,0.062,0.379,0.11,0.466,0.146c0.09,0.041,0.161,0.097,0.212,0.169c0.048,0.073,0.073,0.165,0.073,0.272    s-0.03,0.205-0.092,0.301c-0.061,0.093-0.151,0.166-0.267,0.215c-0.116,0.054-0.248,0.08-0.396,0.08    c-0.241,0-0.429-0.051-0.555-0.153C19.213,38.141,19.132,37.988,19.096,37.786z"
   id="path121199" />
		<path
   fill="rgb(255,255,255)"
   d="M22.233,37.667l0.313,0.043c-0.036,0.216-0.123,0.383-0.263,0.502c-0.141,0.124-0.312,0.186-0.516,0.186    c-0.257,0-0.464-0.085-0.615-0.25c-0.156-0.171-0.235-0.412-0.235-0.725c0-0.205,0.035-0.384,0.1-0.537    c0.066-0.149,0.17-0.265,0.306-0.342c0.139-0.077,0.288-0.113,0.448-0.113c0.202,0,0.367,0.051,0.498,0.155    c0.129,0.104,0.212,0.253,0.248,0.445l-0.312,0.042c-0.027-0.126-0.081-0.222-0.156-0.286c-0.072-0.063-0.162-0.096-0.269-0.096    c-0.157,0-0.288,0.058-0.386,0.173c-0.102,0.116-0.151,0.298-0.151,0.548c0,0.252,0.048,0.438,0.147,0.548    c0.094,0.117,0.221,0.174,0.375,0.174c0.124,0,0.228-0.039,0.312-0.113C22.158,37.944,22.212,37.826,22.233,37.667z"
   id="path121201" />
		<path
   fill="rgb(255,255,255)"
   d="M22.887,38.355v-0.363h0.364v0.363H22.887z"
   id="path121203" />
		<path
   fill="rgb(255,255,255)"
   d="M23.543,37.414c0-0.351,0.097-0.607,0.29-0.776c0.162-0.139,0.361-0.208,0.593-0.208    c0.26,0,0.47,0.086,0.634,0.252c0.163,0.171,0.245,0.404,0.245,0.703c0,0.243-0.035,0.435-0.108,0.572    c-0.072,0.14-0.178,0.247-0.317,0.324c-0.137,0.077-0.29,0.115-0.453,0.115c-0.263,0-0.476-0.085-0.639-0.252    C23.626,37.973,23.543,37.731,23.543,37.414z M23.868,37.412c0,0.241,0.055,0.423,0.161,0.542c0.103,0.12,0.236,0.181,0.396,0.181    c0.158,0,0.292-0.061,0.395-0.182c0.107-0.119,0.161-0.303,0.161-0.551c0-0.234-0.054-0.41-0.161-0.53    c-0.104-0.119-0.238-0.18-0.395-0.18c-0.16,0-0.294,0.061-0.396,0.179C23.923,36.989,23.868,37.172,23.868,37.412z"
   id="path121205" />
		<path
   fill="rgb(255,255,255)"
   d="M25.673,38.355v-1.884h0.281v0.291c0.076-0.136,0.142-0.225,0.203-0.268    c0.063-0.044,0.131-0.064,0.205-0.064c0.11,0,0.218,0.033,0.328,0.104l-0.112,0.291c-0.076-0.042-0.152-0.062-0.231-0.062    c-0.067,0-0.129,0.02-0.187,0.062c-0.052,0.042-0.094,0.1-0.117,0.175c-0.033,0.114-0.052,0.236-0.052,0.371v0.985L25.673,38.355    L25.673,38.355z"
   id="path121207" />
		<path
   fill="rgb(255,255,255)"
   d="M26.789,38.508l0.318,0.043c0.013,0.1,0.05,0.171,0.107,0.216c0.078,0.06,0.188,0.09,0.322,0.09    c0.146,0,0.261-0.031,0.342-0.09c0.077-0.059,0.133-0.145,0.16-0.25c0.018-0.066,0.023-0.203,0.023-0.412    c-0.14,0.167-0.314,0.25-0.522,0.25c-0.26,0-0.46-0.094-0.601-0.281c-0.143-0.188-0.213-0.41-0.213-0.672    c0-0.178,0.031-0.344,0.097-0.497c0.065-0.151,0.157-0.27,0.283-0.353c0.123-0.084,0.269-0.124,0.434-0.124    c0.224,0,0.407,0.095,0.553,0.276v-0.234h0.288v1.628c0,0.292-0.027,0.501-0.091,0.625c-0.057,0.12-0.152,0.219-0.281,0.287    c-0.129,0.072-0.288,0.107-0.477,0.107c-0.224,0-0.406-0.049-0.544-0.15C26.849,38.866,26.784,38.713,26.789,38.508z     M27.05,37.379c0,0.248,0.05,0.43,0.149,0.542c0.098,0.115,0.223,0.17,0.37,0.17s0.271-0.055,0.371-0.167    c0.101-0.114,0.152-0.292,0.152-0.534c0-0.23-0.054-0.404-0.157-0.521s-0.227-0.176-0.372-0.176c-0.142,0-0.262,0.058-0.362,0.174    C27.1,36.981,27.05,37.151,27.05,37.379z"
   id="path121209" />
	</g>
</g>

</g><g transform="translate(76.000000 12.000000)"><g transform="translate(0.000000 0.000000) scale(0.005391) scale(1.0 -1.0)"><g transform="translate(0 -2189)"><path fill="rgb(255,255,255)" stroke="rgb(255,255,255)" stroke-width="80" d="M756 1491Q1065 1491 1287 1270T1509 737Q1509 426 1288 204T756 -18Q444 -18 222 203T0 737Q0 1048 222 1269T756 1491ZM754 106Q1013 106 1198 291T1384 737Q1384 997 1199 1181T754 1366Q494 1366 310 1182T125 737Q125 477 309 292T754 106ZM1106 319H946Q795 594 749 629T633 664H555V319H424V1130H705Q831 1130 899 1112T1009 1036T1051 911Q1051 828 991 760T819 684V680Q892 663 1008 477L1106 319ZM555 776H715Q825 776 868 808T911 899Q911 956 870 988T705 1020H555V776Z" /></g></g></g><g transform="translate(128.000000 60.000000)"><g transform="translate(0.000000 0.000000) scale(0.006396) scale(1.0 -1.0)"><g transform="translate(0 -2189)"><path fill="rgb(35,105,67)" stroke="rgb(35,105,67)" stroke-width="80" d="M164 1466H670Q803 1466 899 1453T1082 1387T1235 1242T1338 1031T1376 741Q1376 417 1222 209T692 0H164V1466ZM358 174H672Q768 174 843 186T996 251T1125 425T1176 745Q1176 855 1157 950T1085 1124T964 1239T832 1284T666 1292H358V174Z" /></g><g transform="translate(1559 -2189)"><path fill="rgb(35,105,67)" stroke="rgb(35,105,67)" stroke-width="80" d="M1057 0H868Q842 50 831 131Q650 -25 440 -25Q272 -25 175 59T78 281Q78 413 171 498T496 612L664 637Q758 652 819 674Q819 755 814 788T785 858T706 916T561 938Q445 938 378 895T285 735L109 758Q138 921 258 1003T588 1085Q779 1085 868 1029T978 892T999 686V444Q999 223 1007 148T1057 0ZM819 467V532Q678 485 474 458T270 285Q270 212 325 165T483 117Q616 117 717 196T819 467Z" /></g><g transform="translate(2778 -2189)"><path fill="rgb(35,105,67)" stroke="rgb(35,105,67)" stroke-width="80" d="M729 764Q717 851 659 894T496 938Q393 938 330 903T266 801Q266 738 316 711T516 645Q684 602 767 569T897 477T944 311Q944 169 828 72T518 -25Q316 -25 203 60T63 317L242 344Q256 233 324 178T516 123Q634 123 697 172T760 293Q760 341 731 370T659 413T463 465Q237 519 165 596T92 780Q92 913 198 999T483 1085Q673 1085 778 1011T905 788L729 764Z" /></g><g transform="translate(4531 -2189)"><path fill="rgb(35,105,67)" stroke="rgb(35,105,67)" stroke-width="80" d="M1196 0H37V182L788 1118Q788 1121 841 1183T940 1292H121V1466H1171V1292L348 279L260 174H1196V0Z" /></g><g transform="translate(5862 -2189)"><path fill="rgb(35,105,67)" stroke="rgb(35,105,67)" stroke-width="80" d="M1059 485H264Q275 309 364 216T588 123Q691 123 761 177T868 342L1053 319Q1008 153 888 64T588 -25Q349 -25 215 121T80 522Q80 773 210 929T578 1085Q694 1085 801 1034T984 861T1059 485ZM874 633Q863 795 774 866T578 938Q451 938 369 853T274 633H874Z" /></g><g transform="translate(7081 -2189)"><path fill="rgb(35,105,67)" stroke="rgb(35,105,67)" stroke-width="80" d="M317 0H137V1061H317V0ZM317 1262H137V1466H317V1262Z" /></g><g transform="translate(7616 -2189)"><path fill="rgb(35,105,67)" stroke="rgb(35,105,67)" stroke-width="80" d="M1006 367Q971 164 846 70T563 -25Q332 -25 206 126T80 528Q80 735 152 859T334 1034T563 1085Q727 1085 843 1000T987 750L813 723Q786 830 726 884T571 938Q420 938 342 831T264 532Q264 336 340 230T561 123Q677 123 743 189T827 389L1006 367Z" /></g><g transform="translate(8720 -2189)"><path fill="rgb(35,105,67)" stroke="rgb(35,105,67)" stroke-width="80" d="M1004 0H823V670Q823 800 767 865T600 930Q490 930 404 854T317 580V0H137V1466H317V940Q445 1085 637 1085Q740 1085 834 1043T966 914T1004 672V0Z" /></g><g transform="translate(9939 -2189)"><path fill="rgb(35,105,67)" stroke="rgb(35,105,67)" stroke-width="80" d="M1059 485H264Q275 309 364 216T588 123Q691 123 761 177T868 342L1053 319Q1008 153 888 64T588 -25Q349 -25 215 121T80 522Q80 773 210 929T578 1085Q694 1085 801 1034T984 861T1059 485ZM874 633Q863 795 774 866T578 938Q451 938 369 853T274 633H874Z" /></g><g transform="translate(11158 -2189)"><path fill="rgb(35,105,67)" stroke="rgb(35,105,67)" stroke-width="80" d="M1004 0H823V645Q823 808 765 869T602 930Q522 930 451 891T349 781T319 580V0H139V1061H301V911H305Q362 998 445 1041T639 1085Q723 1085 805 1055T933 965T992 837T1004 653V0Z" /></g><g transform="translate(13026 -2189)"><path fill="rgb(35,105,67)" stroke="rgb(35,105,67)" stroke-width="80" d="M637 1473L610 1315Q556 1325 504 1325Q439 1325 398 1298T356 1161V1061H561V922H356V0H176V922H16V1061H176V1176Q176 1256 191 1321T270 1438T469 1491Q549 1491 637 1473Z" /></g><g transform="translate(13675 -2189)"><path fill="rgb(35,105,67)" stroke="rgb(35,105,67)" stroke-width="80" d="M997 0H836V156H831Q709 -25 498 -25Q387 -25 293 26T167 168T135 403V1061H315V473Q315 332 328 271T399 171T535 131Q637 131 727 201T817 494V1061H997V0ZM846 1251H662V1456H846V1251ZM476 1251H291V1456H476V1251Z" /></g><g transform="translate(14894 -2189)"><path fill="rgb(35,105,67)" stroke="rgb(35,105,67)" stroke-width="80" d="M709 1028L647 862Q580 901 516 901Q415 901 363 811T311 557V0H131V1061H295V901H299Q385 1085 524 1085Q616 1085 709 1028Z" /></g><g transform="translate(16305 -2189)"><path fill="rgb(35,105,67)" stroke="rgb(35,105,67)" stroke-width="80" d="M999 1061L598 0H430L27 1061H217L436 447Q498 273 510 211H514Q530 275 569 383L815 1061H999Z" /></g><g transform="translate(17409 -2189)"><path fill="rgb(35,105,67)" stroke="rgb(35,105,67)" stroke-width="80" d="M1059 485H264Q275 309 364 216T588 123Q691 123 761 177T868 342L1053 319Q1008 153 888 64T588 -25Q349 -25 215 121T80 522Q80 773 210 929T578 1085Q694 1085 801 1034T984 861T1059 485ZM874 633Q863 795 774 866T578 938Q451 938 369 853T274 633H874Z" /></g><g transform="translate(18628 -2189)"><path fill="rgb(35,105,67)" stroke="rgb(35,105,67)" stroke-width="80" d="M709 1028L647 862Q580 901 516 901Q415 901 363 811T311 557V0H131V1061H295V901H299Q385 1085 524 1085Q616 1085 709 1028Z" /></g><g transform="translate(19390 -2189)"><path fill="rgb(35,105,67)" stroke="rgb(35,105,67)" stroke-width="80" d="M1057 0H868Q842 50 831 131Q650 -25 440 -25Q272 -25 175 59T78 281Q78 413 171 498T496 612L664 637Q758 652 819 674Q819 755 814 788T785 858T706 916T561 938Q445 938 378 895T285 735L109 758Q138 921 258 1003T588 1085Q779 1085 868 1029T978 892T999 686V444Q999 223 1007 148T1057 0ZM819 467V532Q678 485 474 458T270 285Q270 212 325 165T483 117Q616 117 717 196T819 467Z" /></g><g transform="translate(20609 -2189)"><path fill="rgb(35,105,67)" stroke="rgb(35,105,67)" stroke-width="80" d="M1004 0H823V645Q823 808 765 869T602 930Q522 930 451 891T349 781T319 580V0H139V1061H301V911H305Q362 998 445 1041T639 1085Q723 1085 805 1055T933 965T992 837T1004 653V0Z" /></g><g transform="translate(21828 -2189)"><path fill="rgb(35,105,67)" stroke="rgb(35,105,67)" stroke-width="80" d="M551 2Q471 -14 416 -14Q298 -14 244 27T178 133T166 311V922H35V1061H166V1325L346 1434V1061H526V922H346V301Q346 221 362 188T446 154Q485 154 526 162L551 2Z" /></g><g transform="translate(22477 -2189)"><path fill="rgb(35,105,67)" stroke="rgb(35,105,67)" stroke-width="80" d="M1468 1061L1135 0H948L780 637Q779 637 759 723T739 817H735L524 0H336L10 1061H197L428 221L464 364L653 1061H838L981 505Q1041 275 1047 244H1051L1292 1061H1468Z" /></g><g transform="translate(24036 -2189)"><path fill="rgb(35,105,67)" stroke="rgb(35,105,67)" stroke-width="80" d="M569 1085Q784 1085 925 945T1067 547Q1067 234 914 105T569 -25Q368 -25 220 108T72 530Q72 810 215 947T569 1085ZM569 123Q723 123 803 237T883 537Q883 736 793 837T569 938Q432 938 344 836T256 530Q256 328 345 226T569 123Z" /></g><g transform="translate(25255 -2189)"><path fill="rgb(35,105,67)" stroke="rgb(35,105,67)" stroke-width="80" d="M709 1028L647 862Q580 901 516 901Q415 901 363 811T311 557V0H131V1061H295V901H299Q385 1085 524 1085Q616 1085 709 1028Z" /></g><g transform="translate(26017 -2189)"><path fill="rgb(35,105,67)" stroke="rgb(35,105,67)" stroke-width="80" d="M551 2Q471 -14 416 -14Q298 -14 244 27T178 133T166 311V922H35V1061H166V1325L346 1434V1061H526V922H346V301Q346 221 362 188T446 154Q485 154 526 162L551 2Z" /></g><g transform="translate(26666 -2189)"><path fill="rgb(35,105,67)" stroke="rgb(35,105,67)" stroke-width="80" d="M997 0H836V156H831Q709 -25 498 -25Q387 -25 293 26T167 168T135 403V1061H315V473Q315 332 328 271T399 171T535 131Q637 131 727 201T817 494V1061H997V0Z" /></g><g transform="translate(27885 -2189)"><path fill="rgb(35,105,67)" stroke="rgb(35,105,67)" stroke-width="80" d="M1004 0H823V645Q823 808 765 869T602 930Q522 930 451 891T349 781T319 580V0H139V1061H301V911H305Q362 998 445 1041T639 1085Q723 1085 805 1055T933 965T992 837T1004 653V0Z" /></g><g transform="translate(29104 -2189)"><path fill="rgb(35,105,67)" stroke="rgb(35,105,67)" stroke-width="80" d="M1006 143Q1006 -83 961 -194T801 -368T526 -430Q346 -430 226 -350T106 -88L281 -115Q291 -199 351 -241T524 -283Q664 -283 729 -226T808 -87T823 139Q706 0 528 0Q321 0 196 153T70 539Q70 773 192 929T530 1085Q718 1085 836 934H840V1061H1006V143ZM545 147Q660 147 749 238T838 545Q838 735 753 836T543 938Q415 938 335 834T254 549Q254 340 338 244T545 147Z" /></g><g transform="translate(30323 -2189)"><path fill="rgb(35,105,67)" stroke="rgb(35,105,67)" stroke-width="80" d="M729 764Q717 851 659 894T496 938Q393 938 330 903T266 801Q266 738 316 711T516 645Q684 602 767 569T897 477T944 311Q944 169 828 72T518 -25Q316 -25 203 60T63 317L242 344Q256 233 324 178T516 123Q634 123 697 172T760 293Q760 341 731 370T659 413T463 465Q237 519 165 596T92 780Q92 913 198 999T483 1085Q673 1085 778 1011T905 788L729 764Z" /></g><g transform="translate(31427 -2189)"><path fill="rgb(35,105,67)" stroke="rgb(35,105,67)" stroke-width="80" d="M616 440H66V621H616V440Z" /></g></g><g transform="translate(39.950206 14.000000) scale(0.006396) scale(1.0 -1.0)"><g transform="translate(0 -2189)"><path fill="rgb(35,105,67)" stroke="rgb(35,105,67)" stroke-width="80" d="M999 1061L598 0H430L27 1061H217L436 447Q498 273 510 211H514Q530 275 569 383L815 1061H999Z" /></g><g transform="translate(1104 -2189)"><path fill="rgb(35,105,67)" stroke="rgb(35,105,67)" stroke-width="80" d="M569 1085Q784 1085 925 945T1067 547Q1067 234 914 105T569 -25Q368 -25 220 108T72 530Q72 810 215 947T569 1085ZM569 123Q723 123 803 237T883 537Q883 736 793 837T569 938Q432 938 344 836T256 530Q256 328 345 226T569 123Z" /></g><g transform="translate(2323 -2189)"><path fill="rgb(35,105,67)" stroke="rgb(35,105,67)" stroke-width="80" d="M317 0H137V1466H317V0Z" /></g><g transform="translate(2858 -2189)"><path fill="rgb(35,105,67)" stroke="rgb(35,105,67)" stroke-width="80" d="M317 0H137V1466H317V0Z" /></g><g transform="translate(3393 -2189)"><path fill="rgb(35,105,67)" stroke="rgb(35,105,67)" stroke-width="80" d="M1059 485H264Q275 309 364 216T588 123Q691 123 761 177T868 342L1053 319Q1008 153 888 64T588 -25Q349 -25 215 121T80 522Q80 773 210 929T578 1085Q694 1085 801 1034T984 861T1059 485ZM874 633Q863 795 774 866T578 938Q451 938 369 853T274 633H874Z" /></g><g transform="translate(5261 -2189)"><path fill="rgb(35,105,67)" stroke="rgb(35,105,67)" stroke-width="80" d="M1911 1466L1507 0H1321L1001 1155Q976 1244 969 1290H965L924 1116L612 0H416L25 1466H223L449 504Q494 315 506 226Q508 208 508 205H512Q552 395 575 477L854 1466H1090L1298 725Q1376 449 1411 205H1415Q1436 324 1485 524L1716 1466H1911Z" /></g><g transform="translate(7274 -2189)"><path fill="rgb(35,105,67)" stroke="rgb(35,105,67)" stroke-width="80" d="M1057 0H868Q842 50 831 131Q650 -25 440 -25Q272 -25 175 59T78 281Q78 413 171 498T496 612L664 637Q758 652 819 674Q819 755 814 788T785 858T706 916T561 938Q445 938 378 895T285 735L109 758Q138 921 258 1003T588 1085Q779 1085 868 1029T978 892T999 686V444Q999 223 1007 148T1057 0ZM819 467V532Q678 485 474 458T270 285Q270 212 325 165T483 117Q616 117 717 196T819 467Z" /></g><g transform="translate(8493 -2189)"><path fill="rgb(35,105,67)" stroke="rgb(35,105,67)" stroke-width="80" d="M317 0H137V1466H317V0Z" /></g><g transform="translate(9028 -2189)"><path fill="rgb(35,105,67)" stroke="rgb(35,105,67)" stroke-width="80" d="M995 0H827V135H823Q726 -25 530 -25Q335 -25 205 129T74 530Q74 787 197 936T522 1085Q712 1085 811 940H815V1466H995V0ZM549 123Q667 123 749 220T831 514Q831 708 756 823T541 938Q401 938 330 826T258 530Q258 398 296 307T404 169T549 123Z" /></g><g transform="translate(10247 -2189)"><path fill="rgb(35,105,67)" stroke="rgb(35,105,67)" stroke-width="80" d="M1468 1061L1135 0H948L780 637Q779 637 759 723T739 817H735L524 0H336L10 1061H197L428 221L464 364L653 1061H838L981 505Q1041 275 1047 244H1051L1292 1061H1468Z" /></g><g transform="translate(11806 -2189)"><path fill="rgb(35,105,67)" stroke="rgb(35,105,67)" stroke-width="80" d="M317 0H137V1061H317V0ZM317 1262H137V1466H317V1262Z" /></g><g transform="translate(12341 -2189)"><path fill="rgb(35,105,67)" stroke="rgb(35,105,67)" stroke-width="80" d="M709 1028L647 862Q580 901 516 901Q415 901 363 811T311 557V0H131V1061H295V901H299Q385 1085 524 1085Q616 1085 709 1028Z" /></g><g transform="translate(13103 -2189)"><path fill="rgb(35,105,67)" stroke="rgb(35,105,67)" stroke-width="80" d="M551 2Q471 -14 416 -14Q298 -14 244 27T178 133T166 311V922H35V1061H166V1325L346 1434V1061H526V922H346V301Q346 221 362 188T446 154Q485 154 526 162L551 2Z" /></g><g transform="translate(13752 -2189)"><path fill="rgb(35,105,67)" stroke="rgb(35,105,67)" stroke-width="80" d="M729 764Q717 851 659 894T496 938Q393 938 330 903T266 801Q266 738 316 711T516 645Q684 602 767 569T897 477T944 311Q944 169 828 72T518 -25Q316 -25 203 60T63 317L242 344Q256 233 324 178T516 123Q634 123 697 172T760 293Q760 341 731 370T659 413T463 465Q237 519 165 596T92 780Q92 913 198 999T483 1085Q673 1085 778 1011T905 788L729 764Z" /></g><g transform="translate(14856 -2189)"><path fill="rgb(35,105,67)" stroke="rgb(35,105,67)" stroke-width="80" d="M1006 367Q971 164 846 70T563 -25Q332 -25 206 126T80 528Q80 735 152 859T334 1034T563 1085Q727 1085 843 1000T987 750L813 723Q786 830 726 884T571 938Q420 938 342 831T264 532Q264 336 340 230T561 123Q677 123 743 189T827 389L1006 367Z" /></g><g transform="translate(15960 -2189)"><path fill="rgb(35,105,67)" stroke="rgb(35,105,67)" stroke-width="80" d="M1004 0H823V670Q823 800 767 865T600 930Q490 930 404 854T317 580V0H137V1466H317V940Q445 1085 637 1085Q740 1085 834 1043T966 914T1004 672V0Z" /></g><g transform="translate(17179 -2189)"><path fill="rgb(35,105,67)" stroke="rgb(35,105,67)" stroke-width="80" d="M1057 0H868Q842 50 831 131Q650 -25 440 -25Q272 -25 175 59T78 281Q78 413 171 498T496 612L664 637Q758 652 819 674Q819 755 814 788T785 858T706 916T561 938Q445 938 378 895T285 735L109 758Q138 921 258 1003T588 1085Q779 1085 868 1029T978 892T999 686V444Q999 223 1007 148T1057 0ZM819 467V532Q678 485 474 458T270 285Q270 212 325 165T483 117Q616 117 717 196T819 467Z" /></g><g transform="translate(18398 -2189)"><path fill="rgb(35,105,67)" stroke="rgb(35,105,67)" stroke-width="80" d="M637 1473L610 1315Q556 1325 504 1325Q439 1325 398 1298T356 1161V1061H561V922H356V0H176V922H16V1061H176V1176Q176 1256 191 1321T270 1438T469 1491Q549 1491 637 1473Z" /></g><g transform="translate(19047 -2189)"><path fill="rgb(35,105,67)" stroke="rgb(35,105,67)" stroke-width="80" d="M551 2Q471 -14 416 -14Q298 -14 244 27T178 133T166 311V922H35V1061H166V1325L346 1434V1061H526V922H346V301Q346 221 362 188T446 154Q485 154 526 162L551 2Z" /></g></g></g><g transform="translate(181.755807 101.000000)"><g transform="translate(0.000000 0.000000) scale(0.006396) scale(1.0 -1.0)"><g transform="translate(0 -2189)"><path fill="rgb(35,105,67)" stroke="rgb(35,105,67)" stroke-width="80" d="M1153 1292H358V838H1047V664H358V0H164V1466H1153V1292Z" /></g><g transform="translate(1331 -2189)"><path fill="rgb(35,105,67)" stroke="rgb(35,105,67)" stroke-width="80" d="M1028 1036Q1016 1176 927 1246T672 1317Q522 1317 428 1261T334 1098Q334 1003 406 957T684 864Q866 824 981 782T1178 652T1260 414Q1260 225 1110 100T717 -25Q408 -25 255 113T92 471L276 487Q289 311 412 231T709 150Q872 150 972 217T1073 399Q1073 519 968 574T616 682T259 833T150 1085Q150 1261 288 1376T664 1491Q908 1491 1056 1377T1214 1051L1028 1036Z" /></g><g transform="translate(2777 -2189)"><path fill="rgb(35,105,67)" stroke="rgb(35,105,67)" stroke-width="80" d="M1399 465Q1335 218 1176 97T793 -25Q433 -25 269 200T104 743Q104 1094 297 1292T795 1491Q1009 1491 1161 1382T1374 1063L1184 1018Q1136 1171 1038 1248T793 1325Q553 1325 429 1168T305 745Q305 439 435 290T776 141Q948 141 1055 234T1206 514L1399 465Z" /></g></g><g transform="translate(29.763468 2.333333) scale(0.003198) scale(1.0 -1.0)"><g transform="translate(27.219735038831 -2189)"><path fill="rgb(35,105,67)" stroke="rgb(35,105,67)" stroke-width="80" d="M756 1491Q1065 1491 1287 1270T1509 737Q1509 426 1288 204T756 -18Q444 -18 222 203T0 737Q0 1048 222 1269T756 1491ZM754 106Q1013 106 1198 291T1384 737Q1384 997 1199 1181T754 1366Q494 1366 310 1182T125 737Q125 477 309 292T754 106ZM1106 319H946Q795 594 749 629T633 664H555V319H424V1130H705Q831 1130 899 1112T1009 1036T1051 911Q1051 828 991 760T819 684V680Q892 663 1008 477L1106 319ZM555 776H715Q825 776 868 808T911 899Q911 956 870 988T705 1020H555V776Z" /></g></g><g transform="translate(37.219735 0.000000) scale(0.006396) scale(1.0 -1.0)"><g transform="translate(37.219735038831 -2189)"><path fill="rgb(35,105,67)" stroke="rgb(35,105,67)" stroke-width="80" d="" /></g><g transform="translate(686.21973503883 -2189)"><path fill="rgb(35,105,67)" stroke="rgb(35,105,67)" stroke-width="80" d="M1399 465Q1335 218 1176 97T793 -25Q433 -25 269 200T104 743Q104 1094 297 1292T795 1491Q1009 1491 1161 1382T1374 1063L1184 1018Q1136 1171 1038 1248T793 1325Q553 1325 429 1168T305 745Q305 439 435 290T776 141Q948 141 1055 234T1206 514L1399 465Z" /></g><g transform="translate(2245.2197350388 -2189)"><path fill="rgb(35,105,67)" stroke="rgb(35,105,67)" stroke-width="80" d="M569 1473Q1047 1473 1047 723Q1047 344 924 160T569 -25Q92 -25 92 723Q92 1102 215 1287T569 1473ZM569 123Q714 123 788 263T862 723Q862 945 830 1072T732 1262T567 1325Q422 1325 349 1182T276 723Q276 504 309 376T407 186T569 123Z" /></g><g transform="translate(3464.2197350388 -2189)"><path fill="rgb(35,105,67)" stroke="rgb(35,105,67)" stroke-width="80" d="M569 1473Q1047 1473 1047 723Q1047 344 924 160T569 -25Q92 -25 92 723Q92 1102 215 1287T569 1473ZM569 123Q714 123 788 263T862 723Q862 945 830 1072T732 1262T567 1325Q422 1325 349 1182T276 723Q276 504 309 376T407 186T569 123Z" /></g><g transform="translate(4683.2197350388 -2189)"><path fill="rgb(35,105,67)" stroke="rgb(35,105,67)" stroke-width="80" d="M1034 0H63Q63 124 149 251T473 569Q618 685 732 812T846 1069Q846 1180 768 1252T569 1325Q448 1325 366 1251T283 1028L98 1049Q115 1255 244 1364T573 1473Q789 1473 909 1354T1030 1065Q1030 924 929 780T524 393Q365 266 313 174H1034V0Z" /></g><g transform="translate(5902.2197350388 -2189)"><path fill="rgb(35,105,67)" stroke="rgb(35,105,67)" stroke-width="80" d="M768 0H588V1147Q453 1019 227 930V1104Q538 1253 651 1473H768V0Z" /></g><g transform="translate(7121.2197350388 -2189)"><path fill="rgb(35,105,67)" stroke="rgb(35,105,67)" stroke-width="80" d="M776 793Q912 767 981 662T1051 432Q1051 232 906 104T557 -25Q363 -25 237 88T90 387L270 412Q297 267 368 195T557 123Q683 123 770 211T858 428Q858 551 779 632T571 713Q519 713 444 694L465 852Q537 852 579 859T673 893T759 970T793 1096Q793 1205 721 1265T553 1325Q444 1325 376 1256T289 1059L109 1092Q144 1283 263 1378T549 1473Q732 1473 854 1363T977 1092Q977 887 776 797V793Z" /></g><g transform="translate(8340.2197350388 -2189)"><path fill="rgb(35,105,67)" stroke="rgb(35,105,67)" stroke-width="80" d="M1044 350H846V0H666V350H31V516L698 1466H846V516H1044V350ZM666 516V1178H662L207 516H666Z" /></g></g></g></svg>